<svg xmlns="http://www.w3.org/2000/svg" xmlns:xlink="http://www.w3.org/1999/xlink" width="800" viewBox="0 0 600 449.999984" height="600" preserveAspectRatio="xMidYMid meet"><defs><clipPath id="c08c4ff61f"><path d="M 4 135.546875 L 598 135.546875 L 598 314 L 4 314 Z M 4 135.546875 " clip-rule="nonzero"></path></clipPath></defs><g clip-path="url(#c08c4ff61f)"><path fill="#c2529e" d="M 597.304688 249.179688 C 595.351562 223.929688 578.945312 209.820312 562.144531 198.78125 C 538.570312 183.738281 513.128906 171.054688 487.292969 161.445312 C 367.113281 120.292969 249.101562 130.980469 135.339844 185.445312 C 106.464844 199.394531 79.113281 217.707031 48.109375 236.066406 C 43.5625 202.667969 60.210938 170.464844 57.398438 135.726562 C 43.605469 141.746094 40.550781 153.324219 37.761719 162.855469 C 26.464844 202.007812 15.613281 241.734375 5.789062 281.597656 C 1.234375 300.792969 5.875 309.210938 24.3125 311.605469 C 62.652344 317.117188 98.925781 310.378906 132.113281 291.257812 C 133.269531 290.367188 133.664062 287.296875 134.773438 282.753906 C 109.230469 262.765625 81.894531 293.058594 53.828125 280.554688 C 86.582031 240.550781 130.089844 218.089844 175.121094 199.992188 C 222.328125 181.136719 270.480469 167.089844 321.277344 164.84375 C 371.050781 162.464844 418.921875 170.777344 467.292969 183.316406 C 515.792969 194.835938 558.167969 217.53125 597.304688 249.179688 Z M 597.304688 249.179688 " fill-opacity="1" fill-rule="nonzero"></path></g></svg>